<svg width="50" height="29" viewBox="0 0 50 29" fill="none" xmlns="http://www.w3.org/2000/svg">
<path opacity="0.6" d="M19.6387 22.2051C19.6387 22.3483 19.6315 22.4557 19.6172 22.5273C19.5456 22.556 19.4883 22.599 19.4453 22.6562C19.4023 22.6992 19.3307 22.7135 19.2305 22.6992C19.2018 22.9141 19.1302 23.0931 19.0156 23.2363C18.901 23.3796 18.7793 23.5085 18.6504 23.623C18.5358 23.752 18.4212 23.8809 18.3066 24.0098C18.1921 24.153 18.1204 24.332 18.0918 24.5469C17.877 24.6615 17.6621 24.8118 17.4473 24.998C17.2467 25.1986 17.0677 25.3346 16.9102 25.4062C16.7956 25.4635 16.6738 25.5065 16.5449 25.5352C16.416 25.5781 16.2871 25.6283 16.1582 25.6855C15.7428 25.8717 15.3132 26.0651 14.8691 26.2656C14.4395 26.4661 13.9883 26.5664 13.5156 26.5664H13.3652C13.3079 26.6237 13.2363 26.6595 13.1504 26.6738C13.0645 26.7025 12.9785 26.724 12.8926 26.7383C12.8066 26.7526 12.7207 26.7741 12.6348 26.8027C12.5488 26.8314 12.4844 26.8743 12.4414 26.9316C12.2839 26.8743 12.112 26.8457 11.9258 26.8457H11.7754C11.5319 26.903 11.3027 26.946 11.0879 26.9746C10.873 27.0033 10.6439 27.0176 10.4004 27.0176C9.9707 27.0176 9.54102 26.9889 9.11133 26.9316C8.68164 26.8743 8.25195 26.8242 7.82227 26.7812C7.55013 26.5664 7.32812 26.2943 7.15625 25.9648C6.98438 25.6497 6.89844 25.3132 6.89844 24.9551C6.89844 24.6829 6.95573 24.4251 7.07031 24.1816C7.1849 23.9525 7.33529 23.7448 7.52148 23.5586H7.58594C7.71484 23.5586 7.84375 23.5299 7.97266 23.4727C8.11589 23.4154 8.25195 23.3867 8.38086 23.3867C8.52409 23.3867 8.63867 23.444 8.72461 23.5586C8.82487 23.6732 8.89648 23.8092 8.93945 23.9668C8.99674 24.1243 9.03255 24.2819 9.04688 24.4395C9.0612 24.6113 9.06836 24.7474 9.06836 24.8477C9.22591 24.9193 9.39062 24.9622 9.5625 24.9766C9.7487 24.9909 9.9349 24.998 10.1211 24.998C10.3073 24.998 10.515 24.9837 10.7441 24.9551C10.9733 24.9408 11.2025 24.9049 11.4316 24.8477C11.6751 24.8047 11.9043 24.7474 12.1191 24.6758C12.3483 24.6042 12.5417 24.5111 12.6992 24.3965C13.487 24.3249 14.1816 24.1458 14.7832 23.8594C15.3848 23.5729 16.0221 23.2363 16.6953 22.8496C16.724 22.6921 16.7812 22.5703 16.8672 22.4844C16.9674 22.3841 17.0176 22.2409 17.0176 22.0547C17.0176 22.026 17.0104 21.9974 16.9961 21.9688C16.9961 21.9258 16.9961 21.89 16.9961 21.8613C16.7096 21.5033 16.4089 21.1882 16.0938 20.916C15.793 20.6439 15.3991 20.4648 14.9121 20.3789C14.8548 20.25 14.7617 20.1569 14.6328 20.0996C14.5039 20.028 14.3678 19.9635 14.2246 19.9062C14.0814 19.849 13.9453 19.7917 13.8164 19.7344C13.6875 19.6628 13.5944 19.5482 13.5371 19.3906C13.1504 19.319 12.7493 19.2331 12.334 19.1328C11.9329 19.0182 11.5892 18.8177 11.3027 18.5312C11.0736 18.5169 10.8516 18.474 10.6367 18.4023C10.4362 18.3164 10.2357 18.2376 10.0352 18.166C9.83464 18.0801 9.62695 18.0085 9.41211 17.9512C9.19727 17.8796 8.97526 17.8438 8.74609 17.8438C8.6888 17.7435 8.61003 17.6647 8.50977 17.6074C8.40951 17.5501 8.29492 17.5 8.16602 17.457C8.05143 17.4141 7.93685 17.3711 7.82227 17.3281C7.72201 17.2708 7.64323 17.1921 7.58594 17.0918C7.52865 17.1061 7.48568 17.1348 7.45703 17.1777C7.42839 17.2207 7.37826 17.2422 7.30664 17.2422H7.2207C7.19206 17.1562 7.13477 17.099 7.04883 17.0703C6.96289 17.0273 6.91276 16.9486 6.89844 16.834C6.64062 16.8197 6.4043 16.7695 6.18945 16.6836C5.98893 16.5977 5.79557 16.5046 5.60938 16.4043C5.4375 16.2897 5.25846 16.1823 5.07227 16.082C4.88607 15.9818 4.67839 15.903 4.44922 15.8457C4.30599 15.7311 4.16992 15.6094 4.04102 15.4805C3.92643 15.3372 3.77604 15.2656 3.58984 15.2656C3.54688 15.2656 3.4681 15.2799 3.35352 15.3086C3.32487 15.0508 3.21745 14.8717 3.03125 14.7715C2.84505 14.6569 2.64453 14.5566 2.42969 14.4707C2.28646 14.0983 2.0931 13.7689 1.84961 13.4824C1.60612 13.196 1.34115 12.931 1.05469 12.6875C1.08333 12.6016 1.09766 12.5371 1.09766 12.4941C1.09766 12.3509 1.06185 12.2292 0.990234 12.1289C0.91862 12.0143 0.839844 11.9212 0.753906 11.8496C0.553385 11.2051 0.453125 10.5749 0.453125 9.95898C0.453125 9.09961 0.646484 8.30469 1.0332 7.57422C1.4056 6.82943 2 6.27083 2.81641 5.89844C2.83073 5.78385 2.86654 5.68359 2.92383 5.59766C2.99544 5.51172 3.03841 5.41146 3.05273 5.29688C3.18164 5.29688 3.2819 5.26823 3.35352 5.21094C3.42513 5.15365 3.48958 5.09635 3.54688 5.03906C3.61849 4.96745 3.6901 4.90299 3.76172 4.8457C3.83333 4.78841 3.92643 4.7526 4.04102 4.73828C4.58529 4.26562 5.16536 3.88607 5.78125 3.59961C6.39714 3.29883 7.02734 2.99089 7.67188 2.67578C7.80078 2.61849 7.9082 2.51107 7.99414 2.35352H8.12305C8.26628 2.35352 8.3737 2.32487 8.44531 2.26758C8.53125 2.19596 8.65299 2.17448 8.81055 2.20312C8.86784 2.11719 8.93945 2.0599 9.02539 2.03125C9.12565 2.0026 9.21875 1.98112 9.30469 1.9668C9.40495 1.93815 9.49805 1.90234 9.58398 1.85938C9.66992 1.81641 9.72721 1.75195 9.75586 1.66602H9.90625C10.1497 1.66602 10.3861 1.63021 10.6152 1.55859C10.8444 1.47266 11.0736 1.37956 11.3027 1.2793H11.4531C11.7396 1.2793 12.0046 1.22917 12.248 1.12891C12.5059 1.01432 12.778 0.935547 13.0645 0.892578C13.179 0.863932 13.2936 0.856771 13.4082 0.871094C13.5228 0.885417 13.6374 0.892578 13.752 0.892578C13.8236 0.892578 13.9095 0.885417 14.0098 0.871094C14.11 0.856771 14.1816 0.813802 14.2246 0.742188H14.2676C14.3535 0.742188 14.4036 0.770833 14.418 0.828125C14.4323 0.885417 14.4753 0.914062 14.5469 0.914062C14.6471 0.914062 14.7474 0.89974 14.8477 0.871094C14.9479 0.842448 15.0482 0.828125 15.1484 0.828125C15.5781 0.828125 16.0007 0.871094 16.416 0.957031C16.8457 1.04297 17.2682 1.12174 17.6836 1.19336C17.7122 1.36523 17.7839 1.48698 17.8984 1.55859C18.0273 1.63021 18.1634 1.69466 18.3066 1.75195V1.83789C18.3066 1.95247 18.3353 2.04557 18.3926 2.11719C18.3353 2.31771 18.235 2.4681 18.0918 2.56836C17.9486 2.66862 17.791 2.75456 17.6191 2.82617C17.6908 2.88346 17.7337 2.96224 17.748 3.0625C17.7624 3.16276 17.7695 3.25586 17.7695 3.3418V3.59961L17.6621 3.57812C17.4329 3.57812 17.3184 3.68555 17.3184 3.90039C17.1322 3.78581 16.9245 3.71419 16.6953 3.68555C16.4805 3.6569 16.2656 3.64258 16.0508 3.64258C15.7643 3.64258 15.4635 3.6569 15.1484 3.68555C14.8333 3.69987 14.5254 3.69271 14.2246 3.66406C14.11 3.80729 13.9668 3.91471 13.7949 3.98633C13.623 4.04362 13.4512 4.07227 13.2793 4.07227C13.0931 4.07227 12.9141 4.03646 12.7422 3.96484C12.5703 3.87891 12.4486 3.75716 12.377 3.59961C12.3053 3.57096 12.2409 3.55664 12.1836 3.55664H11.9902C11.7611 3.55664 11.5319 3.58529 11.3027 3.64258C11.0879 3.68555 10.8659 3.74284 10.6367 3.81445C10.4076 3.87174 10.1784 3.9362 9.94922 4.00781C9.73438 4.0651 9.51237 4.10091 9.2832 4.11523C9.19727 4.22982 9.08268 4.30859 8.93945 4.35156C8.79622 4.39453 8.68164 4.47331 8.5957 4.58789C8.29492 4.64518 8.02279 4.74544 7.7793 4.88867C7.53581 5.01758 7.29948 5.16081 7.07031 5.31836L6.4043 5.76953C6.18945 5.91276 5.94596 6.03451 5.67383 6.13477C5.47331 6.34961 5.28711 6.52148 5.11523 6.65039C4.94336 6.7793 4.72135 6.89388 4.44922 6.99414C4.27734 7.05143 4.17708 7.13737 4.14844 7.25195C4.13411 7.36654 4.07682 7.48112 3.97656 7.5957C3.89062 7.69596 3.7832 7.77474 3.6543 7.83203C3.53971 7.875 3.43945 7.95378 3.35352 8.06836C3.2819 8.16862 3.22461 8.29036 3.18164 8.43359C3.15299 8.5625 3.11719 8.69141 3.07422 8.82031C3.03125 8.94922 2.98112 9.07812 2.92383 9.20703C2.86654 9.32161 2.7806 9.42188 2.66602 9.50781C2.66602 9.5651 2.65885 9.6224 2.64453 9.67969C2.64453 9.73698 2.64453 9.78711 2.64453 9.83008C2.64453 10.0306 2.66602 10.2383 2.70898 10.4531C2.76628 10.6536 2.80208 10.8542 2.81641 11.0547C3.10286 11.556 3.43945 12.0143 3.82617 12.4297C4.21289 12.8307 4.62826 13.2031 5.07227 13.5469C5.51628 13.8906 5.97461 14.2129 6.44727 14.5137C6.93424 14.8145 7.41406 15.1081 7.88672 15.3945C8.05859 15.3802 8.21615 15.4017 8.35938 15.459C8.5026 15.502 8.65299 15.5306 8.81055 15.5449C8.98242 15.6738 9.18294 15.7741 9.41211 15.8457L10.0996 16.0605C10.3288 16.1322 10.5508 16.2181 10.7656 16.3184C10.9805 16.4043 11.1595 16.526 11.3027 16.6836C11.3743 16.6979 11.4388 16.7194 11.4961 16.748C11.5534 16.7624 11.6178 16.7695 11.6895 16.7695C11.7754 16.7695 11.8255 16.7409 11.8398 16.6836C12.4844 16.9271 13.1146 17.1992 13.7305 17.5C14.3464 17.7865 14.998 18.0085 15.6855 18.166C15.9577 18.3952 16.2585 18.5957 16.5879 18.7676C16.9173 18.9395 17.2467 19.1185 17.5762 19.3047C17.9056 19.4766 18.2207 19.6699 18.5215 19.8848C18.8223 20.0853 19.0872 20.3288 19.3164 20.6152C19.3451 20.8874 19.4023 21.1523 19.4883 21.4102C19.5885 21.6536 19.6387 21.9186 19.6387 22.2051ZM45.248 4.28711C45.2194 4.35872 45.1621 4.48763 45.0762 4.67383C44.9902 4.86003 44.9473 4.98177 44.9473 5.03906C44.9473 5.15365 44.9401 5.30404 44.9258 5.49023C44.9258 5.66211 44.9831 5.76953 45.0977 5.8125C44.9401 6.14193 44.8398 6.47852 44.7969 6.82227C44.7682 7.15169 44.7539 7.49544 44.7539 7.85352C44.7539 8.19727 44.7467 8.54818 44.7324 8.90625C44.7181 9.25 44.6608 9.58659 44.5605 9.91602C44.6178 10.002 44.6322 10.1094 44.6035 10.2383C44.5892 10.3529 44.625 10.446 44.7109 10.5176C44.6393 10.6322 44.5964 10.7467 44.582 10.8613C44.5677 10.9616 44.5605 11.069 44.5605 11.1836C44.5605 11.4128 44.582 11.6348 44.625 11.8496C44.4674 12.0788 44.3887 12.3366 44.3887 12.623C44.403 12.8952 44.4102 13.1745 44.4102 13.4609C44.4102 13.7044 44.3743 13.9408 44.3027 14.1699C44.2454 14.3991 44.2168 14.6354 44.2168 14.8789C44.2168 14.9505 44.224 15.015 44.2383 15.0723C44.2526 15.1296 44.2598 15.194 44.2598 15.2656C44.2598 15.3372 44.2311 15.3874 44.1738 15.416C44.1309 15.4303 44.1094 15.4948 44.1094 15.6094C44.1094 16.1393 44.0736 16.6549 44.002 17.1562C43.9303 17.6432 43.8372 18.1302 43.7227 18.6172C43.6224 19.0898 43.5078 19.5697 43.3789 20.0566C43.25 20.5436 43.1354 21.0378 43.0352 21.5391C42.8776 21.7109 42.7559 21.9043 42.6699 22.1191C42.5983 22.334 42.4622 22.5059 42.2617 22.6348C42.0755 23.1074 41.8392 23.5371 41.5527 23.9238C41.2806 24.3105 40.9727 24.6758 40.6289 25.0195C40.2995 25.3633 39.9557 25.6927 39.5977 26.0078C39.2396 26.3372 38.8887 26.6738 38.5449 27.0176C38.4017 27.0176 38.2585 27.0176 38.1152 27.0176C37.9863 27.0319 37.8503 27.0391 37.707 27.0391C37.3919 27.0391 37.0768 27.0247 36.7617 26.9961C36.4466 26.9674 36.1458 26.9173 35.8594 26.8457C35.8021 26.6452 35.6875 26.5091 35.5156 26.4375C35.3581 26.3802 35.2148 26.2871 35.0859 26.1582C34.9427 26.0293 34.8353 25.8861 34.7637 25.7285C34.6921 25.571 34.5417 25.4635 34.3125 25.4062C34.2409 25.1914 34.1263 24.9408 33.9688 24.6543C33.8255 24.3678 33.6823 24.0742 33.5391 23.7734C33.3958 23.4727 33.2669 23.1862 33.1523 22.9141C33.0521 22.6276 33.002 22.3841 33.002 22.1836C33.002 22.112 33.0091 22.0475 33.0234 21.9902C33.0521 21.9186 33.0736 21.847 33.0879 21.7754C33.002 21.6751 32.9447 21.5462 32.916 21.3887C32.8874 21.2311 32.8659 21.0736 32.8516 20.916C32.8516 20.7441 32.8372 20.5866 32.8086 20.4434C32.7799 20.2858 32.7155 20.1641 32.6152 20.0781C32.4434 20.1927 32.3073 20.3359 32.207 20.5078C32.1068 20.6797 32.0137 20.8659 31.9277 21.0664C31.8561 21.2669 31.7845 21.4674 31.7129 21.668C31.6413 21.8685 31.5553 22.0547 31.4551 22.2266C31.2546 22.3841 31.0755 22.5632 30.918 22.7637C30.7747 22.9642 30.6243 23.1647 30.4668 23.3652C30.3236 23.5801 30.166 23.7734 29.9941 23.9453C29.8223 24.1315 29.6217 24.2819 29.3926 24.3965C29.3353 24.6543 29.2279 24.8691 29.0703 25.041C28.9271 25.2272 28.7695 25.3919 28.5977 25.5352C28.4258 25.6927 28.2611 25.8503 28.1035 26.0078C27.946 26.1797 27.8314 26.3874 27.7598 26.6309C27.5163 26.7454 27.2441 26.9102 26.9434 27.125C26.6426 27.3542 26.3346 27.5833 26.0195 27.8125C25.7188 28.0417 25.4108 28.235 25.0957 28.3926C24.7949 28.5645 24.5299 28.6504 24.3008 28.6504C24.1146 28.6504 23.9355 28.6289 23.7637 28.5859C23.6061 28.5573 23.4414 28.5215 23.2695 28.4785C23.0977 28.4355 22.9258 28.3926 22.7539 28.3496C22.582 28.321 22.403 28.3138 22.2168 28.3281C21.9447 28.0417 21.737 27.7122 21.5938 27.3398C21.4505 26.9818 21.2715 26.6452 21.0566 26.3301C20.985 25.9004 20.9134 25.4635 20.8418 25.0195C20.7702 24.5898 20.7344 24.1602 20.7344 23.7305C20.7344 23.487 20.763 23.2578 20.8203 23.043C20.8776 22.8424 20.9062 22.6348 20.9062 22.4199C20.9062 22.3483 20.8919 22.2839 20.8633 22.2266C20.849 22.1549 20.8346 22.0833 20.8203 22.0117C20.9206 21.8112 20.9993 21.6035 21.0566 21.3887C21.1139 21.1595 21.1569 20.9303 21.1855 20.7012C21.2285 20.472 21.2715 20.25 21.3145 20.0352C21.3574 19.806 21.4219 19.5911 21.5078 19.3906C21.5365 19.2188 21.4863 19.0898 21.3574 19.0039C21.4577 18.9036 21.5221 18.7962 21.5508 18.6816C21.5794 18.5671 21.5938 18.4525 21.5938 18.3379C21.6081 18.2233 21.6152 18.1016 21.6152 17.9727C21.6152 17.8438 21.6296 17.722 21.6582 17.6074C21.6725 17.5501 21.7083 17.4642 21.7656 17.3496L21.959 16.9844C22.0306 16.8555 22.0879 16.7409 22.1309 16.6406C22.1882 16.526 22.2168 16.4401 22.2168 16.3828C22.2168 16.2826 22.1882 16.1751 22.1309 16.0605C22.1882 15.7741 22.2812 15.4948 22.4102 15.2227C22.5534 14.9505 22.6608 14.6712 22.7324 14.3848C22.804 14.0983 22.847 13.8477 22.8613 13.6328C22.8757 13.4036 22.9401 13.1387 23.0547 12.8379C23.069 12.8092 23.0762 12.7734 23.0762 12.7305C23.0762 12.6732 23.0547 12.6374 23.0117 12.623C22.9688 12.6087 22.9329 12.5801 22.9043 12.5371C23.0762 12.2077 23.2051 11.8568 23.291 11.4844C23.3913 11.0977 23.4701 10.7038 23.5273 10.3027C23.599 9.90169 23.6634 9.50781 23.7207 9.12109C23.778 8.72005 23.8639 8.34049 23.9785 7.98242C23.9355 7.69596 23.8997 7.40234 23.8711 7.10156C23.8424 6.78646 23.8281 6.48568 23.8281 6.19922C23.8281 5.86979 23.8568 5.5332 23.9141 5.18945C23.9857 4.8457 24.1361 4.54492 24.3652 4.28711C24.4798 4.28711 24.6016 4.27995 24.7305 4.26562C24.8737 4.2513 25.0026 4.24414 25.1172 4.24414C25.2891 4.24414 25.4753 4.28711 25.6758 4.37305C25.776 4.83138 25.9049 5.28255 26.0625 5.72656C26.2201 6.17057 26.2988 6.64323 26.2988 7.14453C26.2988 7.38802 26.2702 7.63151 26.2129 7.875L26.0625 8.58398C26.0195 8.81315 25.9837 9.04948 25.9551 9.29297C25.9264 9.52214 25.9336 9.7513 25.9766 9.98047C25.819 10.1953 25.7259 10.446 25.6973 10.7324C25.6829 11.0046 25.6758 11.2624 25.6758 11.5059C25.5326 11.7064 25.4251 11.9069 25.3535 12.1074C25.2819 12.3079 25.2246 12.5156 25.1816 12.7305C25.153 12.931 25.1243 13.1387 25.0957 13.3535C25.0671 13.5684 25.0312 13.7832 24.9883 13.998C24.9596 14.0697 24.9095 14.1556 24.8379 14.2559C24.7806 14.3561 24.752 14.4277 24.752 14.4707C24.752 14.571 24.7806 14.6712 24.8379 14.7715C24.8092 14.8145 24.7806 14.8503 24.752 14.8789C24.7233 14.8932 24.7018 14.929 24.6875 14.9863C24.6445 15.1439 24.6087 15.3158 24.5801 15.502C24.5658 15.6738 24.5371 15.8385 24.4941 15.9961C24.4225 16.3542 24.3223 16.7051 24.1934 17.0488C24.0788 17.3926 23.957 17.7363 23.8281 18.0801C23.8281 18.3665 23.8138 18.5957 23.7852 18.7676C23.7708 18.9395 23.7422 19.097 23.6992 19.2402C23.6706 19.3691 23.6276 19.5124 23.5703 19.6699C23.5273 19.8132 23.4844 19.9993 23.4414 20.2285C23.3984 20.4434 23.3555 20.7083 23.3125 21.0234C23.2839 21.3385 23.248 21.668 23.2051 22.0117C23.1764 22.3411 23.1549 22.6706 23.1406 23C23.1263 23.3151 23.1191 23.5872 23.1191 23.8164C23.1191 24.2318 23.1549 24.6328 23.2266 25.0195C23.3125 25.4206 23.4557 25.8001 23.6562 26.1582H24.0215C24.1074 26.1582 24.2005 26.1582 24.3008 26.1582C24.401 26.1725 24.4941 26.2012 24.5801 26.2441C24.6803 26.2155 24.7305 26.1725 24.7305 26.1152V25.9434C24.7305 25.9004 24.7663 25.8431 24.8379 25.7715L24.9883 25.793C25.1315 25.793 25.2604 25.7715 25.375 25.7285C25.5039 25.6855 25.6328 25.6283 25.7617 25.5566C26.0339 25.1842 26.349 24.8691 26.707 24.6113C27.0794 24.3535 27.4089 24.0527 27.6953 23.709C27.7669 23.5944 27.7884 23.4583 27.7598 23.3008C27.9316 23.2721 28.0605 23.2077 28.1465 23.1074C28.2467 23.0072 28.3398 22.8997 28.4258 22.7852C28.5117 22.6706 28.5977 22.5632 28.6836 22.4629C28.7839 22.3483 28.9128 22.2695 29.0703 22.2266C29.1419 22.0977 29.2064 21.9616 29.2637 21.8184C29.321 21.6608 29.3783 21.5104 29.4355 21.3672C29.5072 21.224 29.5859 21.0951 29.6719 20.9805C29.7721 20.8516 29.901 20.7513 30.0586 20.6797C30.3021 20.1354 30.5098 19.5768 30.6816 19.0039C30.8535 18.4167 31.1113 17.8796 31.4551 17.3926C31.4551 17.2064 31.4622 17.0345 31.4766 16.877C31.4909 16.7194 31.4837 16.5547 31.4551 16.3828C31.8132 15.8958 32.0423 15.3874 32.1426 14.8574C32.2428 14.3275 32.293 13.7689 32.293 13.1816C32.293 12.6947 32.4505 12.3581 32.7656 12.1719C33.0951 11.9857 33.4818 11.8926 33.9258 11.8926H34.1406C34.2266 11.8926 34.3053 11.8997 34.377 11.9141C34.4056 12.0143 34.4557 12.0931 34.5273 12.1504C34.6133 12.1934 34.6992 12.2435 34.7852 12.3008V12.4297C34.7852 12.6302 34.7565 12.8164 34.6992 12.9883C34.6562 13.1458 34.6348 13.3177 34.6348 13.5039C34.6348 13.5898 34.6491 13.7044 34.6777 13.8477C34.821 14.263 34.9284 14.6426 35 14.9863C35.0859 15.3301 35.1289 15.7311 35.1289 16.1895C35.1289 16.5762 35.1074 16.9701 35.0645 17.3711C35.0358 17.7578 34.9928 18.1445 34.9355 18.5312C35.0215 18.6888 35.0645 18.8535 35.0645 19.0254C35.0645 19.14 35.0501 19.2617 35.0215 19.3906C35.0072 19.5052 35 19.6198 35 19.7344C35 19.9779 35.0358 20.2214 35.1074 20.4648C35.1934 20.694 35.2793 20.9232 35.3652 21.1523C35.4655 21.3815 35.5514 21.6107 35.623 21.8398C35.6947 22.069 35.7233 22.2982 35.709 22.5273C35.9525 22.8281 36.1673 23.1361 36.3535 23.4512C36.554 23.7806 36.7975 24.0671 37.084 24.3105C37.1986 24.3392 37.2917 24.3535 37.3633 24.3535C37.4492 24.3535 37.5208 24.3392 37.5781 24.3105C37.6354 24.2962 37.6855 24.2747 37.7285 24.2461C37.7858 24.2318 37.8431 24.2174 37.9004 24.2031C37.9577 24.2031 38.0436 24.2103 38.1582 24.2246C38.416 24.0384 38.6523 23.8236 38.8672 23.5801C39.082 23.3509 39.2826 23.1146 39.4688 22.8711C39.6693 22.6276 39.8698 22.377 40.0703 22.1191C40.2708 21.8613 40.4785 21.6178 40.6934 21.3887C41.1087 20.3574 41.4453 19.3262 41.7031 18.2949C41.9609 17.2637 42.1185 16.1895 42.1758 15.0723C42.1758 14.9147 42.2116 14.8359 42.2832 14.8359C42.3548 14.8359 42.4193 14.7858 42.4766 14.6855V14.084C42.4766 13.6257 42.498 13.1673 42.541 12.709C42.5983 12.2507 42.7057 11.7995 42.8633 11.3555C42.8203 11.1836 42.7988 11.0117 42.7988 10.8398C42.7988 10.4674 42.8275 10.1094 42.8848 9.76562C42.9564 9.40755 42.9922 9.04948 42.9922 8.69141C42.9922 8.50521 42.9707 8.31901 42.9277 8.13281C42.8991 7.93229 42.8275 7.75326 42.7129 7.5957L42.6914 7.4668C42.6914 7.38086 42.7201 7.30924 42.7773 7.25195C42.849 7.19466 42.8991 7.13021 42.9277 7.05859C42.8561 6.8724 42.8275 6.67904 42.8418 6.47852C42.8704 6.27799 42.8848 6.07747 42.8848 5.87695C42.8848 5.76237 42.8704 5.64062 42.8418 5.51172C42.8132 5.38281 42.7415 5.28255 42.627 5.21094C42.7559 5.06771 42.849 4.88151 42.9062 4.65234C42.9635 4.42318 42.9993 4.17969 43.0137 3.92188C43.0423 3.66406 43.0566 3.41341 43.0566 3.16992C43.0566 2.91211 43.071 2.69727 43.0996 2.52539C43.2285 2.38216 43.3717 2.26042 43.5293 2.16016C43.7012 2.04557 43.8874 1.98828 44.0879 1.98828C44.3457 1.98828 44.5319 2.08138 44.6465 2.26758C44.7611 2.43945 44.847 2.6543 44.9043 2.91211C44.9616 3.1556 45.0046 3.40625 45.0332 3.66406C45.0762 3.92188 45.1478 4.12956 45.248 4.28711ZM49.2656 20.207C49.2656 20.4219 49.2227 20.6296 49.1367 20.8301C49.0651 21.0163 48.9792 21.2025 48.8789 21.3887L48.5781 21.9473C48.4779 22.1335 48.3991 22.3268 48.3418 22.5273L48.2559 22.5059C48.0553 22.5059 47.862 22.5345 47.6758 22.5918C47.4896 22.6348 47.3034 22.6849 47.1172 22.7422C46.931 22.7995 46.7376 22.8568 46.5371 22.9141C46.3509 22.9714 46.1576 23 45.957 23C45.9284 22.7995 45.8711 22.6204 45.7852 22.4629C45.6849 22.3053 45.513 22.2266 45.2695 22.2266C45.2266 22.112 45.2051 21.9902 45.2051 21.8613C45.1908 21.7324 45.1836 21.6107 45.1836 21.4961C45.1836 21.3672 45.1764 21.2454 45.1621 21.1309C45.1335 21.002 45.0905 20.8802 45.0332 20.7656C45.291 20.5651 45.5059 20.3288 45.6777 20.0566C45.8496 19.7702 46.043 19.5124 46.2578 19.2832C46.4297 19.3262 46.6087 19.3477 46.7949 19.3477C47.0098 19.3477 47.2246 19.3262 47.4395 19.2832C47.6543 19.2259 47.8691 19.1973 48.084 19.1973C48.3132 19.1973 48.528 19.2546 48.7285 19.3691C48.7715 19.4408 48.8001 19.5195 48.8145 19.6055C48.8288 19.6914 48.8503 19.7773 48.8789 19.8633C48.9219 19.9349 48.9648 19.9993 49.0078 20.0566C49.0651 20.1139 49.151 20.1426 49.2656 20.1426V20.207Z" fill="#080E2C"/>
</svg>
